<svg id="" xmlns="http://www.w3.org/2000/svg" version="1.1" xmlns:chemical="http://www.ch.ic.ac.uk/chemime/" width="400px" height="300px" viewBox="0 0 400 300">
	<style> # {pointer-events:none; }  # .event  { pointer-events:all;}  </style>
	<chemical:x-mdl-molfile>\nJME\n\n  0  0  0  0  0  0  0  0  0  0999 V3000\nM  V30 BEGIN CTAB\nM  V30 COUNTS 15 16 0 0 0\nM  V30 BEGIN ATOM\nM  V30 1 C 3.6373 0.7000 0.0000 0\nM  V30 2 C 3.6373 2.1000 0.0000 0\nM  V30 3 C 2.4249 2.8000 0.0000 0\nM  V30 4 C 1.2124 2.1000 0.0000 0\nM  V30 5 C 1.2124 0.7000 0.0000 0\nM  V30 6 O 2.4249 0.0000 0.0000 0\nM  V30 7 C 3.4148 3.7899 0.0000 0\nM  V30 8 C 4.7671 3.4276 0.0000 0\nM  V30 9 C 5.7571 4.4176 0.0000 0\nM  V30 10 C 5.3947 5.7698 0.0000 0\nM  V30 11 C 4.0424 6.1322 0.0000 0\nM  V30 12 C 3.0525 5.1422 0.0000 0\nM  V30 13 C 1.2124 3.5000 0.0000 0\nM  V30 14 O 1.2124 4.9000 0.0000 0\nM  V30 15 N 0.0000 2.8000 0.0000 0\nM  V30 END ATOM\nM  V30 BEGIN BOND\nM  V30 1 1 1 2\nM  V30 2 1 2 3\nM  V30 3 1 3 4\nM  V30 4 1 4 5\nM  V30 5 1 5 6\nM  V30 6 1 6 1\nM  V30 7 1 3 7\nM  V30 8 1 8 9\nM  V30 9 2 9 10\nM  V30 10 1 10 11\nM  V30 11 2 11 12\nM  V30 12 1 7 12\nM  V30 13 2 7 8\nM  V30 14 1 3 13\nM  V30 15 2 13 14\nM  V30 16 1 13 15\nM  V30 END BOND\nM  V30 END CTAB\nM  END\n</chemical:x-mdl-molfile>
	<text x="192.22" text-anchor="middle" y="206.56" font-family=" Helvetica" font-size="14" fill="rgb(255,13,13)">O</text>
	<text x="171.43" text-anchor="middle" y="122.56" font-family=" Helvetica" font-size="14" fill="rgb(255,13,13)">O</text>
	<text x="150.65" text-anchor="middle" y="158.56" font-family=" Helvetica" font-size="14" fill="rgb(48,80,248)">N</text>
	<text x="143.09" text-anchor="middle" y="162.56" font-family=" Helvetica" font-size="9" fill="rgb(48,80,248)">2</text>
	<text x="135.53" text-anchor="middle" y="158.56" font-family=" Helvetica" font-size="14" fill="rgb(48,80,248)">H</text>
	<line x1="249.34" y1="126.83" x2="243.13" y2="103.65" style="stroke:rgb(0,0,0);stroke-width:1.44"/>
	<line x1="245.2" y1="125.28" x2="240.31" y2="107.05" style="stroke:rgb(0,0,0);stroke-width:1.44"/>
	<line x1="219.95" y1="97.43" x2="202.98" y2="114.4" style="stroke:rgb(0,0,0);stroke-width:1.44"/>
	<line x1="220.68" y1="101.79" x2="207.33" y2="115.14" style="stroke:rgb(0,0,0);stroke-width:1.44"/>
	<line x1="209.19" y1="137.59" x2="232.37" y2="143.8" style="stroke:rgb(0,0,0);stroke-width:1.44"/>
	<line x1="212.59" y1="134.77" x2="230.83" y2="139.66" style="stroke:rgb(0,0,0);stroke-width:1.44"/>
	<line x1="173.23" y1="143.6" x2="173.23" y2="125.56" style="stroke:rgb(0,0,0);stroke-width:1.44"/>
	<line x1="169.63" y1="143.6" x2="169.63" y2="125.56" style="stroke:rgb(0,0,0);stroke-width:1.44"/>
	<line x1="213" y1="190.56" x2="213" y2="166.56" style="stroke:rgb(0,0,0);stroke-width:1.44"/>
	<line x1="213" y1="166.56" x2="192.22" y2="154.56" style="stroke:rgb(0,0,0);stroke-width:1.44"/>
	<line x1="192.22" y1="154.56" x2="171.43" y2="166.56" style="stroke:rgb(0,0,0);stroke-width:1.44"/>
	<line x1="171.43" y1="166.56" x2="171.43" y2="190.56" style="stroke:rgb(0,0,0);stroke-width:1.44"/>
	<line x1="171.43" y1="190.56" x2="185.77" y2="198.84" style="stroke:rgb(0,0,0);stroke-width:1.44"/>
	<line x1="198.66" y1="198.84" x2="213" y2="190.56" style="stroke:rgb(0,0,0);stroke-width:1.44"/>
	<line x1="192.22" y1="154.56" x2="209.19" y2="137.59" style="stroke:rgb(0,0,0);stroke-width:1.44"/>
	<line x1="232.37" y1="143.8" x2="249.34" y2="126.83" style="stroke:rgb(0,0,0);stroke-width:1.44"/>
	<line x1="243.13" y1="103.65" x2="219.95" y2="97.43" style="stroke:rgb(0,0,0);stroke-width:1.44"/>
	<line x1="209.19" y1="137.59" x2="202.98" y2="114.4" style="stroke:rgb(0,0,0);stroke-width:1.44"/>
	<line x1="192.22" y1="154.56" x2="171.43" y2="142.56" style="stroke:rgb(0,0,0);stroke-width:1.44"/>
	<line x1="171.43" y1="142.56" x2="156.7" y2="151.06" style="stroke:rgb(0,0,0);stroke-width:1.44"/>
	<line id=":Bond:8-9" class="event" x1="249.34" y1="126.83" x2="243.13" y2="103.65" stroke-width="8" stroke-opacity="0"/>
	<line id=":Bond:10-11" class="event" x1="219.95" y1="97.43" x2="202.98" y2="114.4" stroke-width="8" stroke-opacity="0"/>
	<line id=":Bond:6-7" class="event" x1="209.19" y1="137.59" x2="232.37" y2="143.8" stroke-width="8" stroke-opacity="0"/>
	<line id=":Bond:12-13" class="event" x1="171.43" y1="142.56" x2="171.43" y2="118.56" stroke-width="8" stroke-opacity="0"/>
	<line id=":Bond:0-1" class="event" x1="213" y1="190.56" x2="213" y2="166.56" stroke-width="8" stroke-opacity="0"/>
	<line id=":Bond:1-2" class="event" x1="213" y1="166.56" x2="192.22" y2="154.56" stroke-width="8" stroke-opacity="0"/>
	<line id=":Bond:2-3" class="event" x1="192.22" y1="154.56" x2="171.43" y2="166.56" stroke-width="8" stroke-opacity="0"/>
	<line id=":Bond:3-4" class="event" x1="171.43" y1="166.56" x2="171.43" y2="190.56" stroke-width="8" stroke-opacity="0"/>
	<line id=":Bond:4-5" class="event" x1="171.43" y1="190.56" x2="192.22" y2="202.56" stroke-width="8" stroke-opacity="0"/>
	<line id=":Bond:5-0" class="event" x1="192.22" y1="202.56" x2="213" y2="190.56" stroke-width="8" stroke-opacity="0"/>
	<line id=":Bond:2-6" class="event" x1="192.22" y1="154.56" x2="209.19" y2="137.59" stroke-width="8" stroke-opacity="0"/>
	<line id=":Bond:7-8" class="event" x1="232.37" y1="143.8" x2="249.34" y2="126.83" stroke-width="8" stroke-opacity="0"/>
	<line id=":Bond:9-10" class="event" x1="243.13" y1="103.65" x2="219.95" y2="97.43" stroke-width="8" stroke-opacity="0"/>
	<line id=":Bond:6-11" class="event" x1="209.19" y1="137.59" x2="202.98" y2="114.4" stroke-width="8" stroke-opacity="0"/>
	<line id=":Bond:2-12" class="event" x1="192.22" y1="154.56" x2="171.43" y2="142.56" stroke-width="8" stroke-opacity="0"/>
	<line id=":Bond:12-14" class="event" x1="171.43" y1="142.56" x2="150.65" y2="154.56" stroke-width="8" stroke-opacity="0"/>
	<circle id=":Atom:0" class="event" cx="213" cy="190.56" r="8" fill-opacity="0"/>
	<circle id=":Atom:1" class="event" cx="213" cy="166.56" r="8" fill-opacity="0"/>
	<circle id=":Atom:2" class="event" cx="192.22" cy="154.56" r="8" fill-opacity="0"/>
	<circle id=":Atom:3" class="event" cx="171.43" cy="166.56" r="8" fill-opacity="0"/>
	<circle id=":Atom:4" class="event" cx="171.43" cy="190.56" r="8" fill-opacity="0"/>
	<circle id=":Atom:5" class="event" cx="192.22" cy="202.56" r="8" fill-opacity="0"/>
	<circle id=":Atom:6" class="event" cx="209.19" cy="137.59" r="8" fill-opacity="0"/>
	<circle id=":Atom:7" class="event" cx="232.37" cy="143.8" r="8" fill-opacity="0"/>
	<circle id=":Atom:8" class="event" cx="249.34" cy="126.83" r="8" fill-opacity="0"/>
	<circle id=":Atom:9" class="event" cx="243.13" cy="103.65" r="8" fill-opacity="0"/>
	<circle id=":Atom:10" class="event" cx="219.95" cy="97.43" r="8" fill-opacity="0"/>
	<circle id=":Atom:11" class="event" cx="202.98" cy="114.4" r="8" fill-opacity="0"/>
	<circle id=":Atom:12" class="event" cx="171.43" cy="142.56" r="8" fill-opacity="0"/>
	<circle id=":Atom:13" class="event" cx="171.43" cy="118.56" r="8" fill-opacity="0"/>
	<circle id=":Atom:14" class="event" cx="150.65" cy="154.56" r="8" fill-opacity="0"/>
</svg>