<svg id="" xmlns="http://www.w3.org/2000/svg" version="1.1" xmlns:chemical="http://www.ch.ic.ac.uk/chemime/" width="400px" height="300px" viewBox="0 0 400 300">
	<style> # {pointer-events:none; }  # .event  { pointer-events:all;}  </style>
	<chemical:x-mdl-molfile>\nJME\n\n  0  0  0  0  0  0  0  0  0  0999 V3000\nM  V30 BEGIN CTAB\nM  V30 COUNTS 15 16 0 0 0\nM  V30 BEGIN ATOM\nM  V30 1 C 1.2122 6.2984 0.0000 0\nM  V30 2 C 1.2122 4.8988 0.0000 0\nM  V30 3 O 0.0000 4.1990 0.0000 0\nM  V30 4 N 2.4242 4.1990 0.0000 0\nM  V30 5 C 2.4242 2.7994 0.0000 0\nM  V30 6 C 1.2112 2.0996 0.0000 0\nM  V30 7 C 1.2112 0.7000 0.0000 0\nM  V30 8 C 2.4242 0.0000 0.0000 0\nM  V30 9 C 3.6372 0.7000 0.0000 0\nM  V30 10 N 4.8502 0.0000 0.0000 0\nM  V30 11 C 6.0632 0.7000 0.0000 0\nM  V30 12 Cl 7.2752 0.0000 0.0000 0\nM  V30 13 C 6.0632 2.0996 0.0000 0\nM  V30 14 C 4.8502 2.7994 0.0000 0\nM  V30 15 C 3.6372 2.0996 0.0000 0\nM  V30 END ATOM\nM  V30 BEGIN BOND\nM  V30 1 1 1 2\nM  V30 2 2 2 3\nM  V30 3 1 2 4\nM  V30 4 1 4 5\nM  V30 5 2 5 6\nM  V30 6 1 6 7\nM  V30 7 2 7 8\nM  V30 8 1 8 9\nM  V30 9 2 9 10\nM  V30 10 1 10 11\nM  V30 11 1 11 12\nM  V30 12 2 11 13\nM  V30 13 1 13 14\nM  V30 14 2 14 15\nM  V30 15 1 5 15\nM  V30 16 1 9 15\nM  V30 END BOND\nM  V30 END CTAB\nM  END\n</chemical:x-mdl-molfile>
	<text x="137.64" text-anchor="middle" y="136" font-family=" Helvetica" font-size="14" fill="rgb(255,13,13)">O</text>
	<text x="179.19" text-anchor="middle" y="136" font-family=" Helvetica" font-size="14" fill="rgb(48,80,248)">N</text>
	<text x="189.3" text-anchor="middle" y="136" font-family=" Helvetica" font-size="14" fill="rgb(48,80,248)">H</text>
	<text x="220.78" text-anchor="middle" y="207.98" font-family=" Helvetica" font-size="14" fill="rgb(48,80,248)">N</text>
	<text x="262.35" text-anchor="middle" y="207.98" font-family=" Helvetica" font-size="14" fill="rgb(31,240,31)">Cl</text>
	<line x1="158.42" y1="117.92" x2="143.18" y2="126.72" style="stroke:rgb(0,0,0);stroke-width:1.44"/>
	<line x1="160.22" y1="121.04" x2="144.98" y2="129.84" style="stroke:rgb(0,0,0);stroke-width:1.44"/>
	<line x1="179.19" y1="155.99" x2="158.4" y2="167.99" style="stroke:rgb(0,0,0);stroke-width:1.44"/>
	<line x1="178.78" y1="160.39" x2="162.42" y2="169.83" style="stroke:rgb(0,0,0);stroke-width:1.44"/>
	<line x1="158.4" y1="191.98" x2="179.19" y2="203.98" style="stroke:rgb(0,0,0);stroke-width:1.44"/>
	<line x1="162.42" y1="190.14" x2="178.78" y2="199.58" style="stroke:rgb(0,0,0);stroke-width:1.44"/>
	<line x1="199.99" y1="191.98" x2="214.73" y2="200.49" style="stroke:rgb(0,0,0);stroke-width:1.44"/>
	<line x1="204.01" y1="190.14" x2="215.85" y2="196.98" style="stroke:rgb(0,0,0);stroke-width:1.44"/>
	<line x1="241.58" y1="191.98" x2="241.58" y2="167.99" style="stroke:rgb(0,0,0);stroke-width:1.44"/>
	<line x1="237.98" y1="189.42" x2="237.98" y2="170.55" style="stroke:rgb(0,0,0);stroke-width:1.44"/>
	<line x1="220.78" y1="155.99" x2="199.99" y2="167.99" style="stroke:rgb(0,0,0);stroke-width:1.44"/>
	<line x1="220.36" y1="160.39" x2="204.01" y2="169.83" style="stroke:rgb(0,0,0);stroke-width:1.44"/>
	<line x1="158.42" y1="96.01" x2="158.42" y2="120" style="stroke:rgb(0,0,0);stroke-width:1.44"/>
	<line x1="158.42" y1="120" x2="173.14" y2="128.5" style="stroke:rgb(0,0,0);stroke-width:1.44"/>
	<line x1="179.19" y1="139" x2="179.19" y2="155.99" style="stroke:rgb(0,0,0);stroke-width:1.44"/>
	<line x1="158.4" y1="167.99" x2="158.4" y2="191.98" style="stroke:rgb(0,0,0);stroke-width:1.44"/>
	<line x1="179.19" y1="203.98" x2="199.99" y2="191.98" style="stroke:rgb(0,0,0);stroke-width:1.44"/>
	<line x1="226.84" y1="200.49" x2="241.58" y2="191.98" style="stroke:rgb(0,0,0);stroke-width:1.44"/>
	<line x1="241.58" y1="191.98" x2="254.74" y2="199.59" style="stroke:rgb(0,0,0);stroke-width:1.44"/>
	<line x1="241.58" y1="167.99" x2="220.78" y2="155.99" style="stroke:rgb(0,0,0);stroke-width:1.44"/>
	<line x1="179.19" y1="155.99" x2="199.99" y2="167.99" style="stroke:rgb(0,0,0);stroke-width:1.44"/>
	<line x1="199.99" y1="191.98" x2="199.99" y2="167.99" style="stroke:rgb(0,0,0);stroke-width:1.44"/>
	<line id=":Bond:1-2" class="event" x1="158.42" y1="120" x2="137.64" y2="132" stroke-width="8" stroke-opacity="0"/>
	<line id=":Bond:4-5" class="event" x1="179.19" y1="155.99" x2="158.4" y2="167.99" stroke-width="8" stroke-opacity="0"/>
	<line id=":Bond:6-7" class="event" x1="158.4" y1="191.98" x2="179.19" y2="203.98" stroke-width="8" stroke-opacity="0"/>
	<line id=":Bond:8-9" class="event" x1="199.99" y1="191.98" x2="220.78" y2="203.98" stroke-width="8" stroke-opacity="0"/>
	<line id=":Bond:10-12" class="event" x1="241.58" y1="191.98" x2="241.58" y2="167.99" stroke-width="8" stroke-opacity="0"/>
	<line id=":Bond:13-14" class="event" x1="220.78" y1="155.99" x2="199.99" y2="167.99" stroke-width="8" stroke-opacity="0"/>
	<line id=":Bond:0-1" class="event" x1="158.42" y1="96.01" x2="158.42" y2="120" stroke-width="8" stroke-opacity="0"/>
	<line id=":Bond:1-3" class="event" x1="158.42" y1="120" x2="179.19" y2="132" stroke-width="8" stroke-opacity="0"/>
	<line id=":Bond:3-4" class="event" x1="179.19" y1="132" x2="179.19" y2="155.99" stroke-width="8" stroke-opacity="0"/>
	<line id=":Bond:5-6" class="event" x1="158.4" y1="167.99" x2="158.4" y2="191.98" stroke-width="8" stroke-opacity="0"/>
	<line id=":Bond:7-8" class="event" x1="179.19" y1="203.98" x2="199.99" y2="191.98" stroke-width="8" stroke-opacity="0"/>
	<line id=":Bond:9-10" class="event" x1="220.78" y1="203.98" x2="241.58" y2="191.98" stroke-width="8" stroke-opacity="0"/>
	<line id=":Bond:10-11" class="event" x1="241.58" y1="191.98" x2="262.35" y2="203.98" stroke-width="8" stroke-opacity="0"/>
	<line id=":Bond:12-13" class="event" x1="241.58" y1="167.99" x2="220.78" y2="155.99" stroke-width="8" stroke-opacity="0"/>
	<line id=":Bond:4-14" class="event" x1="179.19" y1="155.99" x2="199.99" y2="167.99" stroke-width="8" stroke-opacity="0"/>
	<line id=":Bond:8-14" class="event" x1="199.99" y1="191.98" x2="199.99" y2="167.99" stroke-width="8" stroke-opacity="0"/>
	<circle id=":Atom:0" class="event" cx="158.42" cy="96.01" r="8" fill-opacity="0"/>
	<circle id=":Atom:1" class="event" cx="158.42" cy="120" r="8" fill-opacity="0"/>
	<circle id=":Atom:2" class="event" cx="137.64" cy="132" r="8" fill-opacity="0"/>
	<circle id=":Atom:3" class="event" cx="179.19" cy="132" r="8" fill-opacity="0"/>
	<circle id=":Atom:4" class="event" cx="179.19" cy="155.99" r="8" fill-opacity="0"/>
	<circle id=":Atom:5" class="event" cx="158.4" cy="167.99" r="8" fill-opacity="0"/>
	<circle id=":Atom:6" class="event" cx="158.4" cy="191.98" r="8" fill-opacity="0"/>
	<circle id=":Atom:7" class="event" cx="179.19" cy="203.98" r="8" fill-opacity="0"/>
	<circle id=":Atom:8" class="event" cx="199.99" cy="191.98" r="8" fill-opacity="0"/>
	<circle id=":Atom:9" class="event" cx="220.78" cy="203.98" r="8" fill-opacity="0"/>
	<circle id=":Atom:10" class="event" cx="241.58" cy="191.98" r="8" fill-opacity="0"/>
	<circle id=":Atom:11" class="event" cx="262.35" cy="203.98" r="8" fill-opacity="0"/>
	<circle id=":Atom:12" class="event" cx="241.58" cy="167.99" r="8" fill-opacity="0"/>
	<circle id=":Atom:13" class="event" cx="220.78" cy="155.99" r="8" fill-opacity="0"/>
	<circle id=":Atom:14" class="event" cx="199.99" cy="167.99" r="8" fill-opacity="0"/>
</svg>