<svg id="" xmlns="http://www.w3.org/2000/svg" version="1.1" xmlns:chemical="http://www.ch.ic.ac.uk/chemime/" width="400px" height="300px" viewBox="0 0 400 300">
	<style> # {pointer-events:none; }  # .event  { pointer-events:all;}  </style>
	<chemical:x-mdl-molfile>\nJME\n\n  0  0  0  0  0  0  0  0  0  0999 V3000\nM  V30 BEGIN CTAB\nM  V30 COUNTS 14 14 0 0 0\nM  V30 BEGIN ATOM\nM  V30 1 C 7.2748 6.2996 0.0000 0\nM  V30 2 C 6.0627 5.5995 0.0000 0\nM  V30 3 O 4.8503 6.2992 0.0000 0\nM  V30 4 N 6.0629 4.1997 0.0000 0\nM  V30 5 C 4.8508 3.4996 0.0000 0\nM  V30 6 C 3.6376 4.1995 0.0000 0\nM  V30 7 C 2.4245 3.4996 0.0000 0\nM  V30 8 C 2.4245 2.0999 0.0000 0\nM  V30 9 C 1.2124 1.3998 0.0000 0\nM  V30 10 N 1.2126 0.0000 0.0000 0\nM  V30 11 O 0.0000 2.0995 0.0000 0\nM  V30 12 N 3.6376 1.4000 0.0000 0\nM  V30 13 C 4.8508 2.0999 0.0000 0\nM  V30 14 C 6.0629 1.3998 0.0000 0\nM  V30 END ATOM\nM  V30 BEGIN BOND\nM  V30 1 1 1 2\nM  V30 2 2 2 3\nM  V30 3 1 2 4\nM  V30 4 1 4 5\nM  V30 5 2 5 6\nM  V30 6 1 6 7\nM  V30 7 2 7 8\nM  V30 8 1 8 9\nM  V30 9 1 9 10\nM  V30 10 2 9 11\nM  V30 11 1 8 12\nM  V30 12 2 12 13\nM  V30 13 1 5 13\nM  V30 14 1 13 14\nM  V30 END BOND\nM  V30 END CTAB\nM  END\n</chemical:x-mdl-molfile>
	<text x="220.79" text-anchor="middle" y="100.01" font-family=" Helvetica" font-size="14" fill="rgb(255,13,13)">O</text>
	<text x="241.58" text-anchor="middle" y="136" font-family=" Helvetica" font-size="14" fill="rgb(48,80,248)">N</text>
	<text x="251.69" text-anchor="middle" y="136" font-family=" Helvetica" font-size="14" fill="rgb(48,80,248)">H</text>
	<text x="158.43" text-anchor="middle" y="207.99" font-family=" Helvetica" font-size="14" fill="rgb(48,80,248)">N</text>
	<text x="176.1" text-anchor="middle" y="211.99" font-family=" Helvetica" font-size="9" fill="rgb(48,80,248)">2</text>
	<text x="168.54" text-anchor="middle" y="207.99" font-family=" Helvetica" font-size="14" fill="rgb(48,80,248)">H</text>
	<text x="137.64" text-anchor="middle" y="172" font-family=" Helvetica" font-size="14" fill="rgb(255,13,13)">O</text>
	<text x="200" text-anchor="middle" y="183.99" font-family=" Helvetica" font-size="14" fill="rgb(48,80,248)">N</text>
	<line x1="243.37" y1="106.96" x2="228.13" y2="98.17" style="stroke:rgb(0,0,0);stroke-width:1.44"/>
	<line x1="241.57" y1="110.08" x2="226.33" y2="101.28" style="stroke:rgb(0,0,0);stroke-width:1.44"/>
	<line x1="220.8" y1="144" x2="200" y2="132" style="stroke:rgb(0,0,0);stroke-width:1.44"/>
	<line x1="216.78" y1="145.84" x2="200.42" y2="136.4" style="stroke:rgb(0,0,0);stroke-width:1.44"/>
	<line x1="179.2" y1="144" x2="179.2" y2="167.99" style="stroke:rgb(0,0,0);stroke-width:1.44"/>
	<line x1="182.8" y1="146.56" x2="182.8" y2="165.43" style="stroke:rgb(0,0,0);stroke-width:1.44"/>
	<line x1="160.22" y1="178.96" x2="144.98" y2="170.16" style="stroke:rgb(0,0,0);stroke-width:1.44"/>
	<line x1="158.42" y1="182.07" x2="143.18" y2="173.28" style="stroke:rgb(0,0,0);stroke-width:1.44"/>
	<line x1="220.8" y1="167.99" x2="206.05" y2="176.5" style="stroke:rgb(0,0,0);stroke-width:1.44"/>
	<line x1="216.78" y1="166.16" x2="204.93" y2="172.99" style="stroke:rgb(0,0,0);stroke-width:1.44"/>
	<line x1="262.35" y1="96" x2="241.57" y2="108" style="stroke:rgb(0,0,0);stroke-width:1.44"/>
	<line x1="241.57" y1="108" x2="241.57" y2="125" style="stroke:rgb(0,0,0);stroke-width:1.44"/>
	<line x1="235.52" y1="135.49" x2="220.8" y2="144" style="stroke:rgb(0,0,0);stroke-width:1.44"/>
	<line x1="200" y1="132" x2="179.2" y2="144" style="stroke:rgb(0,0,0);stroke-width:1.44"/>
	<line x1="179.2" y1="167.99" x2="158.42" y2="180" style="stroke:rgb(0,0,0);stroke-width:1.44"/>
	<line x1="158.42" y1="180" x2="158.43" y2="196.99" style="stroke:rgb(0,0,0);stroke-width:1.44"/>
	<line x1="179.2" y1="167.99" x2="193.94" y2="176.5" style="stroke:rgb(0,0,0);stroke-width:1.44"/>
	<line x1="220.8" y1="144" x2="220.8" y2="167.99" style="stroke:rgb(0,0,0);stroke-width:1.44"/>
	<line x1="220.8" y1="167.99" x2="241.58" y2="180" style="stroke:rgb(0,0,0);stroke-width:1.44"/>
	<line id=":Bond:1-2" class="event" x1="241.57" y1="108" x2="220.79" y2="96.01" stroke-width="8" stroke-opacity="0"/>
	<line id=":Bond:4-5" class="event" x1="220.8" y1="144" x2="200" y2="132" stroke-width="8" stroke-opacity="0"/>
	<line id=":Bond:6-7" class="event" x1="179.2" y1="144" x2="179.2" y2="167.99" stroke-width="8" stroke-opacity="0"/>
	<line id=":Bond:8-10" class="event" x1="158.42" y1="180" x2="137.64" y2="168" stroke-width="8" stroke-opacity="0"/>
	<line id=":Bond:11-12" class="event" x1="200" y1="179.99" x2="220.8" y2="167.99" stroke-width="8" stroke-opacity="0"/>
	<line id=":Bond:0-1" class="event" x1="262.35" y1="96" x2="241.57" y2="108" stroke-width="8" stroke-opacity="0"/>
	<line id=":Bond:1-3" class="event" x1="241.57" y1="108" x2="241.58" y2="132" stroke-width="8" stroke-opacity="0"/>
	<line id=":Bond:3-4" class="event" x1="241.58" y1="132" x2="220.8" y2="144" stroke-width="8" stroke-opacity="0"/>
	<line id=":Bond:5-6" class="event" x1="200" y1="132" x2="179.2" y2="144" stroke-width="8" stroke-opacity="0"/>
	<line id=":Bond:7-8" class="event" x1="179.2" y1="167.99" x2="158.42" y2="180" stroke-width="8" stroke-opacity="0"/>
	<line id=":Bond:8-9" class="event" x1="158.42" y1="180" x2="158.43" y2="203.99" stroke-width="8" stroke-opacity="0"/>
	<line id=":Bond:7-11" class="event" x1="179.2" y1="167.99" x2="200" y2="179.99" stroke-width="8" stroke-opacity="0"/>
	<line id=":Bond:4-12" class="event" x1="220.8" y1="144" x2="220.8" y2="167.99" stroke-width="8" stroke-opacity="0"/>
	<line id=":Bond:12-13" class="event" x1="220.8" y1="167.99" x2="241.58" y2="180" stroke-width="8" stroke-opacity="0"/>
	<circle id=":Atom:0" class="event" cx="262.35" cy="96" r="8" fill-opacity="0"/>
	<circle id=":Atom:1" class="event" cx="241.57" cy="108" r="8" fill-opacity="0"/>
	<circle id=":Atom:2" class="event" cx="220.79" cy="96.01" r="8" fill-opacity="0"/>
	<circle id=":Atom:3" class="event" cx="241.58" cy="132" r="8" fill-opacity="0"/>
	<circle id=":Atom:4" class="event" cx="220.8" cy="144" r="8" fill-opacity="0"/>
	<circle id=":Atom:5" class="event" cx="200" cy="132" r="8" fill-opacity="0"/>
	<circle id=":Atom:6" class="event" cx="179.2" cy="144" r="8" fill-opacity="0"/>
	<circle id=":Atom:7" class="event" cx="179.2" cy="167.99" r="8" fill-opacity="0"/>
	<circle id=":Atom:8" class="event" cx="158.42" cy="180" r="8" fill-opacity="0"/>
	<circle id=":Atom:9" class="event" cx="158.43" cy="203.99" r="8" fill-opacity="0"/>
	<circle id=":Atom:10" class="event" cx="137.64" cy="168" r="8" fill-opacity="0"/>
	<circle id=":Atom:11" class="event" cx="200" cy="179.99" r="8" fill-opacity="0"/>
	<circle id=":Atom:12" class="event" cx="220.8" cy="167.99" r="8" fill-opacity="0"/>
	<circle id=":Atom:13" class="event" cx="241.58" cy="180" r="8" fill-opacity="0"/>
</svg>